<svg width="85" height="29" viewBox="0 0 85 29" fill="none" xmlns="http://www.w3.org/2000/svg">
<path d="M32.7037 2.95853C31.9573 2.91786 31.3378 3.50748 31.3074 4.24957C30.9976 12.0517 30.2919 17.5412 29.2053 20.5655C28.2659 23.173 27.3672 23.173 26.9813 23.173C26.5548 23.173 25.0569 22.7511 23.6301 17.2972C22.6653 13.6122 22.1576 9.22567 21.8529 6.60801C21.7717 5.91166 21.7057 5.33221 21.6447 4.91542C21.5432 4.17841 20.8628 3.66504 20.1316 3.77178C19.3954 3.87344 18.8825 4.55454 18.9841 5.28647C19.0399 5.68801 19.1059 6.24713 19.1821 6.91806C20.3246 16.7584 22.056 25.8669 26.9813 25.8669C29.1189 25.8669 30.6727 24.4335 31.7339 21.4804C32.9322 18.1511 33.6735 12.5498 33.9934 4.36139C34.0188 3.60913 33.445 2.98394 32.7037 2.95853Z" fill="white"/>
<path d="M11.3322 3.59387C8.84921 1.34218 5.50308 0.412024 1.375 0.818651C0.638753 0.88981 0.0954516 1.55058 0.171615 2.28759C0.242702 3.0246 0.907866 3.56846 1.63904 3.49222C4.97501 3.16184 7.63059 3.86327 9.52453 5.58126C11.9364 7.76688 12.7996 11.3147 12.7996 13.9019C12.7996 17.0075 11.6927 19.6556 9.51438 21.7803C7.98602 23.2695 6.23933 24.1539 5.0461 24.5707C4.83284 19.6607 3.93918 7.68556 3.89349 7.05528C3.84271 6.31319 3.19786 5.75917 2.46161 5.80491C1.72028 5.85574 1.16174 6.50126 1.21252 7.23827C1.5578 12.2144 2.4413 24.5301 2.40575 26.1667C2.38544 26.9088 2.96937 27.5239 3.71069 27.5442C3.73608 27.5442 3.76147 27.5442 3.78686 27.5442C5.33552 27.5442 8.64611 26.3751 11.3829 23.7067C14.0639 21.0941 15.4805 17.7038 15.4805 13.9019C15.4907 10.7454 14.3939 6.37419 11.3322 3.59387Z" fill="white"/>
<path d="M46.9413 4.11229C47.6318 3.84798 47.9822 3.07031 47.7131 2.37396C47.449 1.6827 46.6722 1.33198 45.9765 1.60137C40.3252 3.77174 36.6744 9.58142 37.0908 15.7317C37.4563 21.0991 40.838 25.1807 45.9207 26.3751C46.0222 26.4005 46.1289 26.4107 46.2304 26.4107C46.8397 26.4107 47.3932 25.9939 47.5353 25.3738C47.7029 24.652 47.2561 23.9252 46.5351 23.7575C42.5847 22.8273 40.0561 19.7573 39.7717 15.5487C39.4925 11.4722 41.62 6.15051 46.9413 4.11229Z" fill="white"/>
<path d="M54.5272 14.7151L63.4079 3.18211C63.8598 2.5925 63.7532 1.74875 63.1642 1.29638C62.5752 0.844004 61.7323 0.950749 61.2804 1.54036L53.9128 11.1113L53.6894 3.86321C53.6691 3.12112 53.0445 2.53659 52.3032 2.56201C51.5619 2.58234 50.9779 3.20244 51.0033 3.94454L51.6025 23.4626C51.6228 24.1895 52.222 24.7638 52.943 24.7638C52.9582 24.7638 52.9684 24.7638 52.9836 24.7638C53.7249 24.7435 54.3088 24.1234 54.2835 23.3813L54.1159 17.8969L62.565 25.0942C62.8189 25.3077 63.1286 25.4144 63.4333 25.4144C63.8141 25.4144 64.1898 25.2518 64.4589 24.9417C64.9413 24.3775 64.8702 23.5287 64.3066 23.0458L54.5272 14.7151Z" fill="white"/>
<path d="M76.4522 1.0321C73.8576 0.584811 71.725 1.01685 70.1255 2.31297C68.0437 3.99539 66.9317 7.03493 66.7286 11.6095C66.7083 12.0263 66.6931 12.4583 66.6728 12.9005L64.5808 13.0683C63.8395 13.1292 63.2911 13.7748 63.3469 14.5169C63.4028 15.2183 63.9918 15.752 64.6823 15.752C64.7179 15.752 64.7534 15.752 64.789 15.7469L66.556 15.6046C66.4087 19.2896 66.2716 23.1729 66.2259 25.4348C66.2107 26.1769 66.7997 26.7919 67.541 26.8072C67.5512 26.8072 67.5613 26.8072 67.5715 26.8072C68.2976 26.8072 68.8967 26.2226 68.912 25.4907C68.9577 23.178 69.0998 19.1524 69.2522 15.3911L74.0911 15.0048C74.8324 14.9438 75.3808 14.2983 75.3199 13.5562C75.264 12.8141 74.6192 12.2652 73.8728 12.3262L69.3588 12.687C69.374 12.3617 69.3893 12.0415 69.3994 11.7315C69.567 8.02608 70.3743 5.56091 71.8011 4.4071C72.7963 3.60402 74.1622 3.37021 75.9901 3.68534C76.7213 3.80733 77.4169 3.31938 77.5388 2.58745C77.6708 1.85044 77.1783 1.15917 76.4522 1.0321Z" fill="white"/>
<path d="M83.4339 8.55473C83.4136 7.81264 82.789 7.22811 82.0528 7.24844C81.3114 7.26877 80.7275 7.88888 80.7478 8.63097L82.0883 26.9393C82.1086 27.6662 82.7078 28.2406 83.4288 28.2406C83.444 28.2406 83.4542 28.2406 83.4694 28.2406C84.2107 28.2202 84.7947 27.6001 84.7743 26.858L83.4339 8.55473Z" fill="white"/>
<path d="M82.0934 4.7477C83.1394 4.7477 83.9823 3.89886 83.9823 2.85688C83.9823 1.80982 83.1343 0.966064 82.0934 0.966064C81.0474 0.966064 80.2046 1.8149 80.2046 2.85688C80.1995 3.89886 81.0474 4.7477 82.0934 4.7477Z" fill="white"/>
</svg>
