<svg width="262" height="127" viewBox="0 0 262 127" fill="none" xmlns="http://www.w3.org/2000/svg">
<path fill-rule="evenodd" clip-rule="evenodd" d="M226.922 28.5529C232.074 29.5714 237.096 33.1105 240.96 38.121C245.014 43.3691 247.771 50.1851 248.096 57.3678C248.519 66.4464 244.857 74.4839 238.97 81.299C231.512 89.95 220.568 96.7073 209.772 101.355C203.311 104.25 196.063 104.866 189.228 103.099C186.154 102.27 183.282 100.833 180.781 98.8756C178.28 96.918 176.201 94.4785 174.666 91.7014C172.602 88.0409 171.483 83.9229 171.408 79.7153C171.334 75.5078 172.306 71.3417 174.239 67.5895C174.746 66.6788 175.001 65.6511 174.979 64.6123C174.943 64.0134 174.751 63.4352 174.42 62.9353C174.09 62.4355 173.633 62.0317 173.095 61.7641C172.183 61.35 171.175 61.1878 170.176 61.2943C166.369 61.6643 162.529 61.4238 158.805 60.5821C156.304 59.897 154.425 58.8446 153.585 57.3445C152.868 56.0628 152.89 55.2086 153.405 54.6146C154.183 53.7007 155.868 52.9293 157.997 52.1585C159.588 51.5828 160.926 50.4675 161.778 49.009C162.645 47.523 163.043 45.8135 162.921 44.1037C162.691 40.6147 163.457 37.1268 165.131 34.0435C166.805 30.9603 169.318 28.4078 172.379 26.6814C174.496 25.4888 176.826 24.724 179.236 24.431C181.646 24.138 184.087 24.3226 186.42 24.9742C188.753 25.6258 190.931 26.7314 192.829 28.2276C194.726 29.7237 196.307 31.5808 197.478 33.6919C199.777 37.7824 200.409 42.6043 199.245 47.1642C198.939 48.2122 198.915 49.3208 199.177 50.3778C199.341 51.0105 199.675 51.5857 200.144 52.0413C200.613 52.4969 201.198 52.8157 201.837 52.9632C202.75 53.1639 203.701 53.1196 204.595 52.8349C206.671 52.2462 208.8 51.4754 210.963 50.456C213.111 49.4447 215.309 48.214 217.477 46.6182C226.457 40.1372 226.731 33.2318 226.875 29.3634L226.93 28.5675L226.922 28.5529ZM172.904 38.8979C172.103 39.3461 171.512 40.0921 171.261 40.9718C171.009 41.8514 171.119 42.7926 171.564 43.5884C172.009 44.3841 172.755 44.9692 173.636 45.2149C174.517 45.4606 175.462 45.3468 176.263 44.8985C177.064 44.4502 177.655 43.7042 177.906 42.8246C178.157 41.9449 178.048 41.0037 177.603 40.208C177.157 39.4123 176.412 38.8272 175.531 38.5815C174.649 38.3358 173.705 38.4496 172.904 38.8979V38.8979Z" fill="white" fill-opacity="0.4"/>
<path fill-rule="evenodd" clip-rule="evenodd" d="M131.633 20.5711C133.514 22.3938 134.657 25.2368 134.917 28.3817C135.192 31.6778 134.499 35.2786 132.688 38.3738C130.405 42.2895 126.693 44.6618 122.381 45.9195C116.914 47.52 110.501 47.3829 104.721 46.4023C101.231 45.8631 98.0297 44.1564 95.6467 41.5644C94.585 40.384 93.7719 39.0043 93.2554 37.5068C92.7389 36.0093 92.5295 34.4244 92.6396 32.8456C92.7676 30.7537 93.4151 28.7262 94.5243 26.9445C95.6336 25.1627 97.1699 23.6822 98.9961 22.6351C99.4553 22.3913 99.8407 22.0302 100.113 21.5891C100.26 21.3288 100.336 21.0345 100.333 20.7357C100.331 20.4369 100.249 20.144 100.096 19.8863C99.8267 19.4657 99.4486 19.1245 99.0014 18.8983C97.307 18.0212 95.7649 16.88 94.4337 15.5181C93.5723 14.5534 93.071 13.6036 93.126 12.7479C93.173 12.0168 93.4139 11.6653 93.7903 11.556C94.3637 11.3843 95.2785 11.5182 96.3787 11.7725C97.2006 11.9625 98.0634 11.8585 98.8153 11.4787C99.5808 11.0914 100.211 10.4836 100.623 9.73471C101.472 8.21163 102.739 6.95903 104.275 6.12187C105.812 5.28471 107.556 4.89721 109.305 5.0042C110.515 5.07867 111.698 5.39009 112.786 5.92056C113.874 6.45103 114.846 7.19007 115.646 8.09514C116.446 9.00021 117.059 10.0534 117.448 11.1942C117.837 12.335 117.995 13.5407 117.913 14.7421C117.767 17.0777 116.725 19.2679 115.001 20.8614C114.589 21.2171 114.279 21.6749 114.102 22.1883C113.999 22.4976 113.983 22.8291 114.056 23.1469C114.129 23.4647 114.287 23.7568 114.515 23.9917C114.843 24.3232 115.253 24.5626 115.704 24.6855C116.733 25.0019 117.833 25.2561 119.015 25.4156C120.188 25.5744 121.442 25.6551 122.782 25.5744C128.299 25.2951 130.285 22.4781 131.394 20.8977L131.633 20.5794L131.633 20.5711ZM106.214 10.261C105.757 10.2317 105.307 10.3838 104.964 10.684C104.62 10.9841 104.411 11.4078 104.382 11.8616C104.352 12.3155 104.506 12.7625 104.808 13.1042C105.11 13.4459 105.537 13.6544 105.994 13.6837C106.45 13.7131 106.9 13.561 107.244 13.2608C107.587 12.9606 107.797 12.537 107.826 12.0831C107.855 11.6292 107.702 11.1823 107.399 10.8406C107.097 10.4989 106.67 10.2904 106.214 10.261V10.261Z" fill="white" fill-opacity="0.4"/>
<path fill-rule="evenodd" clip-rule="evenodd" d="M77.6071 78.6134C80.0135 82.3915 80.7888 87.5749 79.9737 92.9099C79.1243 98.5026 76.5433 104.218 72.3035 108.65C66.9523 114.259 59.8363 116.735 52.1641 117.117C42.4338 117.613 31.8186 114.842 22.5917 110.919C16.9991 108.638 12.3499 104.53 9.413 99.2725C8.11464 96.8877 7.30888 94.2699 7.04331 91.5737C6.77775 88.8776 7.05774 86.1577 7.86678 83.5748C8.90911 80.1451 10.7903 77.0288 13.3421 74.5042C15.894 71.9797 19.037 70.1256 22.4904 69.1077C23.351 68.884 24.1353 68.4361 24.7628 67.8101C25.1114 67.4356 25.3548 66.9762 25.4684 66.4778C25.5821 65.9795 25.5622 65.4598 25.4106 64.9706C25.1287 64.164 24.635 63.4465 23.9806 62.8928C21.5095 60.7618 19.3963 58.2518 17.7216 55.4582C16.671 53.5117 16.2134 51.7327 16.6442 50.3309C17.0123 49.1333 17.5524 48.6439 18.2219 48.6113C19.2441 48.5531 20.713 49.1385 22.4425 49.9977C23.7345 50.6398 25.2112 50.8088 26.6127 50.475C28.0399 50.1342 29.3291 49.3728 30.3119 48.2903C32.3289 46.0931 34.932 44.5111 37.8202 43.7275C40.7083 42.9439 43.7634 42.9906 46.6319 43.8623C48.6146 44.4657 50.4592 45.4528 52.0594 46.7669C53.6597 48.0809 54.9841 49.6959 55.9563 51.5188C56.9285 53.3418 57.5294 55.3367 57.7243 57.3889C57.9193 59.441 57.7045 61.5098 57.0923 63.4762C55.9229 67.304 53.3206 70.5345 49.8216 72.5024C48.9946 72.9307 48.2968 73.5692 47.7989 74.3533C47.5051 74.8271 47.3472 75.3723 47.3423 75.9298C47.3373 76.4874 47.4855 77.0363 47.7708 77.5173C48.185 78.1989 48.7728 78.7599 49.4746 79.1431C51.0611 80.0775 52.7906 80.9367 54.6936 81.6704C56.5828 82.4 58.6372 83.0313 60.8984 83.4284C70.187 85.1509 74.608 81.2516 77.0796 79.062L77.6029 78.627L77.6071 78.6134ZM39.4044 51.3824C38.6561 51.1525 37.8477 51.2273 37.157 51.5905C36.4664 51.9536 35.95 52.5754 35.7215 53.319C35.493 54.0625 35.5711 54.8669 35.9386 55.5553C36.3061 56.2437 36.9329 56.7596 37.6812 56.9896C38.4295 57.2195 39.2378 57.1447 39.9285 56.7815C40.6192 56.4183 41.1356 55.7966 41.3641 55.053C41.5926 54.3095 41.5145 53.505 41.147 52.8167C40.7795 52.1283 40.1526 51.6124 39.4044 51.3824V51.3824Z" fill="white" fill-opacity="0.2"/>
</svg>
