<svg width="29" height="25" viewBox="0 0 29 25" fill="none" xmlns="http://www.w3.org/2000/svg">
<path d="M9.10962 24.1878C20.0535 24.1878 26.0402 15.1198 26.0402 7.26991C26.0402 7.01616 26.0402 6.75878 26.0293 6.50503C27.1949 5.66129 28.2008 4.61668 29 3.42016C27.9113 3.9002 26.7575 4.21658 25.5762 4.35903C26.8205 3.61525 27.7525 2.44497 28.1989 1.06572C27.0298 1.75832 25.7502 2.24452 24.4162 2.50303C23.5193 1.54789 22.3325 0.915131 21.0397 0.702778C19.7468 0.490425 18.4199 0.710325 17.2647 1.32842C16.1094 1.94651 15.1902 2.92829 14.6494 4.1217C14.1087 5.31511 13.9765 6.65353 14.2734 7.92966C11.9077 7.81103 9.59323 7.19644 7.48027 6.12575C5.3673 5.05506 3.50299 3.55218 2.00825 1.71459C1.24943 3.02518 1.01785 4.57544 1.36055 6.05058C1.70324 7.52571 2.59451 8.81512 3.85337 9.65697C2.91004 9.62492 1.98744 9.37161 1.16 8.91747V8.99903C1.16163 10.372 1.63724 11.7022 2.50646 12.765C3.37567 13.8277 4.58517 14.5577 5.9305 14.8317C5.41985 14.9723 4.89235 15.0425 4.36269 15.0401C3.98928 15.0412 3.61663 15.0066 3.24981 14.9368C3.63005 16.1186 4.37043 17.152 5.36726 17.892C6.36409 18.6321 7.56743 19.0418 8.80875 19.0638C6.70001 20.7201 4.09516 21.6184 1.41375 21.614C0.941269 21.616 0.469117 21.5888 0 21.5325C2.7215 23.2675 5.8821 24.1888 9.10962 24.1878Z" fill="#4642F8"/>
</svg>
