<svg width="28" height="20" viewBox="0 0 28 20" fill="none" xmlns="http://www.w3.org/2000/svg">
<path d="M9.37838 0.280273C8.48871 0.280273 5.80648 1.36816 5.3254 1.58564C4.84432 1.80311 4.31003 2.4819 3.70374 3.60222C3.09745 4.72255 2.6102 6.03174 1.81938 7.9581C1.02856 9.88446 0.844141 13.599 0.870502 14.7325C0.896862 15.866 1.02672 16.7507 2.1881 17.4213C3.34947 18.0918 4.37626 18.7924 5.45704 19.2142C6.53782 19.6359 7.27567 19.9388 7.77652 19.5171C8.27737 19.0953 8.60716 18.3573 8.60716 18.3573C8.60716 18.3573 9.08169 17.6984 8.18543 17.303C7.28917 16.9076 6.84111 16.6305 6.88065 16.2219C6.92019 15.8133 6.98569 15.5896 7.20976 15.6423C7.43382 15.6951 7.96139 16.6438 9.99116 17.0788C12.0209 17.5137 13.9999 17.4481 13.9999 17.4481C13.9999 17.4481 15.9788 17.5137 18.0086 17.0788C20.0383 16.6438 20.5659 15.695 20.79 15.6423C21.014 15.5896 21.0795 15.8133 21.1191 16.2219C21.1586 16.6305 20.7106 16.9076 19.8143 17.303C18.918 17.6984 19.3926 18.3573 19.3926 18.3573C19.3926 18.3573 19.7224 19.0953 20.2232 19.5171C20.7241 19.9388 21.4619 19.6359 22.5427 19.2142C23.6235 18.7924 24.6503 18.0918 25.8116 17.4213C26.973 16.7507 27.1029 15.866 27.1292 14.7325C27.1556 13.599 26.9712 9.88446 26.1803 7.9581C25.3895 6.03174 24.9023 4.72255 24.296 3.60222C23.6897 2.4819 23.1554 1.80311 22.6743 1.58564C22.1933 1.36816 19.511 0.280273 18.6214 0.280273C17.7317 0.280273 17.4686 0.900045 17.4686 0.900045L17.1587 1.58564C17.1587 1.58564 15.0747 1.18972 14.0135 1.18916C12.9523 1.18859 10.841 1.58564 10.841 1.58564L10.5311 0.900045C10.5311 0.900045 10.268 0.280273 9.37838 0.280273ZM9.47507 8.50506C9.48594 8.50497 9.49681 8.50497 9.50768 8.50506C10.8048 8.50506 11.8563 9.64002 11.8563 11.0401C11.8563 12.4401 10.8048 13.5751 9.50768 13.5751C8.21059 13.5751 7.15908 12.4401 7.15908 11.0401C7.15895 9.65365 8.19072 8.52431 9.47507 8.50506H9.47507ZM18.492 8.50506C18.5029 8.50497 18.5138 8.50497 18.5247 8.50506C19.809 8.52431 20.8408 9.65365 20.8406 11.0401C20.8406 12.4401 19.7891 13.5751 18.492 13.5751C17.1949 13.5751 16.1434 12.4401 16.1434 11.0401C16.1434 9.64002 17.1949 8.50506 18.492 8.50506H18.492Z" fill="#4642F8"/>
</svg>
