<svg width="48" height="61" viewBox="0 0 48 61" fill="none" xmlns="http://www.w3.org/2000/svg">
<path d="M37.2263 30.7916C37.4536 33.8527 37.6897 37.0211 37.6897 38.6202C37.6897 38.8989 37.6941 39.2076 37.7028 39.5377C37.7815 43.0619 37.8952 48.391 31.5823 50.0631C27.3941 51.1735 22.3054 51.5851 18.3795 51.7223C18.3795 51.7223 18.3795 51.7223 18.3751 51.7223C16.9936 51.7694 15.7564 51.7866 14.7553 51.7866C13.4525 51.7866 2.03337 51.6365 1.71423 46.4489C1.44755 42.153 1.35575 37.7628 2.50116 34.7231C3.45421 32.1935 3.95696 31.8849 6.96475 31.9406C8.87085 31.9792 13.5137 32.2407 17.4002 32.4894C17.4002 32.4894 17.4002 32.4894 17.4046 32.4894C19.9621 32.6523 22.1961 32.8066 23.101 32.8838C24.1852 32.9781 24.3601 33.7627 24.3295 35.379C24.3251 35.4991 24.3251 35.6148 24.3251 35.722C24.3251 35.8035 24.3251 35.9021 24.3295 36.0178C24.3645 39.9236 23.8573 42.4188 22.8169 43.4392C21.466 44.764 17.0723 45.2356 13.4044 45.2356C11.953 45.2356 11.0261 45.1884 10.4141 44.5539C9.50913 43.6107 9.18562 41.2141 9.4217 37.214C9.44793 36.7981 9.12004 36.438 8.69598 36.4165C8.26754 36.3951 7.90469 36.7124 7.88283 37.1282C7.61178 41.75 8.03147 44.2795 9.29491 45.5914C10.4053 46.7447 12.0011 46.7447 13.4088 46.7447C16.4778 46.7447 21.925 46.4532 23.9098 44.5067C25.7241 42.7275 25.899 38.8003 25.8727 36.0007C25.8727 35.8892 25.8727 35.7949 25.8727 35.7177C25.8727 35.6191 25.8727 35.5162 25.8771 35.4005C25.899 34.2643 25.9471 31.6062 23.2453 31.3704C22.3972 31.2975 20.4911 31.1646 18.244 31.0188C18.2046 29.2053 17.6713 26.7658 17.0636 24.0005C16.3466 20.7207 15.5335 17.0036 15.5335 13.9767C15.5335 2.40095 23.6475 1.50061 26.135 1.50061C27.3198 1.50061 29.2303 1.50061 31.0533 2.64961C30.4194 2.47812 29.7505 2.3838 29.0598 2.3838C24.9153 2.3838 21.5447 5.68932 21.5447 9.7537C21.5447 13.3122 24.1328 16.2919 27.5602 16.9778C27.2892 17.4923 27.2018 18.0154 27.2018 18.4698C27.2018 19.3101 27.8881 25.2695 30.6511 25.4839C30.8916 25.501 31.167 25.5096 31.4774 25.5096C32.8763 25.5096 34.9092 25.3253 36.8547 25.0251C36.8984 26.3885 37.0558 28.5407 37.2263 30.7916Z" fill="#FFD900"/>
<path d="M31.578 14.5898C30.9834 14.787 30.4588 14.9627 30.0216 15.1042C29.5888 15.2543 29.2172 15.4258 28.9024 15.6187C25.6761 15.5415 23.0792 12.9477 23.0792 9.76651C23.0792 6.53816 25.7591 3.91003 29.0511 3.91003C33.9475 3.91003 35.6 8.4203 35.9148 13.1492C35.4164 13.3121 32.072 14.4268 31.578 14.5898Z" fill="white"/>
<path d="M45.1392 10.6669C44.0594 10.6669 41.0035 11.5415 37.2963 12.7205C37.0689 10.6583 36.6842 8.83188 36.1508 7.27987C33.6502 0 28.3778 0 26.1263 0C20.255 0 13.9859 3.67423 13.9859 13.9852C13.9859 17.1707 14.8165 20.9693 15.551 24.3263C16.1018 26.8515 16.6264 29.2524 16.692 30.9287C12.9847 30.6972 8.83153 30.4657 6.99538 30.4314C3.57227 30.3628 2.30445 30.8773 1.05412 34.2C-0.191843 37.5012 -0.104408 42.0843 0.171015 46.5432C0.560104 52.8155 11.4327 53.3 14.7509 53.3C15.5685 53.3 16.5434 53.2914 17.6232 53.2614C17.6494 53.8659 17.7019 54.6633 17.7544 55.4908C17.8287 56.6784 17.9205 58.1532 17.8986 58.4619C17.8768 58.7835 17.833 59.5337 18.4626 60.1425C19.0615 60.7213 20.0889 61 21.6452 61C22.0518 61 22.489 60.9828 22.9655 60.9443C23.3896 60.91 23.7087 60.5455 23.6738 60.1297C23.6432 59.7138 23.2716 59.4008 22.8431 59.4351C20.4037 59.6238 19.7173 59.2379 19.538 59.0664C19.4287 58.9592 19.4156 58.8392 19.4331 58.5562C19.455 58.1832 19.3938 57.1157 19.2889 55.4008C19.2408 54.6119 19.1883 53.8059 19.1621 53.2057C21.5928 53.1028 24.3907 52.8927 27.1362 52.4897C27.1581 52.8584 27.1799 53.2614 27.2062 53.6815C27.3111 55.4479 27.4422 57.6516 27.4422 58.1318C27.4422 58.209 27.4379 58.2818 27.4335 58.359C27.3854 59.3494 27.6127 60.3783 29.7025 60.5241C30.3364 60.567 30.8872 60.5841 31.3419 60.5841C32.2425 60.5841 32.7671 60.5284 32.7977 60.5241C33.2217 60.4769 33.5234 60.0997 33.4753 59.6881C33.4272 59.2722 33.0469 58.9764 32.6228 59.0235C32.6141 59.0235 31.543 59.1393 29.8074 59.0193C29.1385 58.9721 28.9855 58.8349 28.9811 58.8349C28.9549 58.7792 28.968 58.5648 28.9724 58.4362C28.9767 58.3333 28.9811 58.2347 28.9811 58.1318C28.9811 57.6044 28.8587 55.5637 28.7407 53.5915C28.7101 53.1113 28.6838 52.6483 28.662 52.241C29.7986 52.0395 30.9091 51.8037 31.9714 51.525C39.4515 49.5443 39.3073 43.0147 39.233 39.5077C39.2242 39.1861 39.2198 38.8903 39.2198 38.6245C39.2198 36.9696 38.9838 33.7755 38.7521 30.6844C38.5728 28.3092 38.4067 26.0455 38.3673 24.7721C39.9499 24.4677 41.327 24.0862 42.0353 23.6746C43.0976 23.1172 43.9326 21.7367 43.6703 20.0518C43.8233 20.0175 43.9501 19.9875 44.055 19.9618C45.2354 19.6617 47.9984 18.9585 47.9984 14.6583C48.0115 13.3636 48.0115 10.6669 45.1392 10.6669ZM31.578 14.5898C30.9834 14.787 30.4588 14.9627 30.0216 15.1042C29.5888 15.2543 29.2172 15.4258 28.9024 15.6187C25.676 15.5415 23.0792 12.9477 23.0792 9.76652C23.0792 6.53816 25.7591 3.91004 29.0511 3.91004C33.9475 3.91004 35.6 8.4203 35.9148 13.1492C35.4164 13.3121 32.072 14.4268 31.578 14.5898ZM37.2263 30.7915C37.4536 33.8527 37.6897 37.021 37.6897 38.6202C37.6897 38.8989 37.6941 39.2075 37.7028 39.5377C37.7815 43.0618 37.8952 48.391 31.5823 50.063C27.3941 51.1735 22.3054 51.585 18.3795 51.7222C18.3795 51.7222 18.3795 51.7222 18.3751 51.7222C16.9937 51.7694 15.7564 51.7865 14.7553 51.7865C13.4525 51.7865 2.0334 51.6365 1.71426 46.4488C1.44758 42.1529 1.35577 37.7627 2.50118 34.723C3.45423 32.1935 3.95698 31.8848 6.96478 31.9405C8.87088 31.9791 13.5137 32.2407 17.4002 32.4893C17.4002 32.4893 17.4002 32.4893 17.4046 32.4893C19.9621 32.6522 22.1961 32.8066 23.1011 32.8837C24.1853 32.9781 24.3601 33.7626 24.3295 35.379C24.3252 35.499 24.3252 35.6148 24.3252 35.722C24.3252 35.8034 24.3252 35.902 24.3295 36.0178C24.3645 39.9235 23.8574 42.4188 22.8169 43.4391C21.466 44.7639 17.0724 45.2355 13.4044 45.2355C11.953 45.2355 11.0262 45.1884 10.4141 44.5538C9.50916 43.6106 9.18565 41.214 9.42172 37.2139C9.44795 36.7981 9.12007 36.4379 8.696 36.4165C8.26757 36.3951 7.90471 36.7123 7.88285 37.1282C7.6118 41.7499 8.03149 44.2794 9.29494 45.5914C10.4054 46.7447 12.0011 46.7447 13.4088 46.7447C16.4778 46.7447 21.925 46.4531 23.9098 44.5067C25.7241 42.7274 25.899 38.8003 25.8728 36.0006C25.8728 35.8892 25.8728 35.7948 25.8728 35.7177C25.8728 35.6191 25.8728 35.5162 25.8771 35.4004C25.899 34.2643 25.9471 31.6061 23.2453 31.3703C22.3972 31.2974 20.4911 31.1645 18.244 31.0188C18.2046 29.2052 17.6713 26.7657 17.0636 24.0004C16.3466 20.7206 15.5335 17.0035 15.5335 13.9767C15.5335 2.4009 23.6475 1.50056 26.1351 1.50056C27.3198 1.50056 29.2303 1.50056 31.0533 2.64956C30.4194 2.47807 29.7505 2.38375 29.0598 2.38375C24.9153 2.38375 21.5447 5.68927 21.5447 9.75365C21.5447 13.3121 24.1328 16.2918 27.5603 16.9778C27.2892 17.4923 27.2018 18.0153 27.2018 18.4698C27.2018 19.3101 27.8882 25.2695 30.6511 25.4838C30.8916 25.501 31.167 25.5096 31.4774 25.5096C32.8764 25.5096 34.9093 25.3252 36.8547 25.0251C36.8984 26.3885 37.0558 28.5407 37.2263 30.7915ZM43.6616 18.5041C42.6036 18.7742 37.5192 19.696 34.9617 19.9961C33.366 20.1847 33.2742 19.7817 33.0294 18.7142C33.0032 18.607 32.9813 18.4955 32.9551 18.384C32.8545 17.9767 32.4392 17.7281 32.0239 17.8267C31.6086 17.9253 31.355 18.3326 31.4555 18.7399C31.4818 18.8428 31.5036 18.9414 31.5255 19.0443C31.7791 20.159 32.1594 21.8482 35.1453 21.4966C36.9334 21.2865 40.0636 20.7592 42.1708 20.3562C42.2888 21.3594 41.7773 22.1054 41.3139 22.3455C41.3008 22.3498 41.2877 22.3584 41.2746 22.367C40.6582 22.7271 39.1936 23.0958 37.5148 23.3916C37.4799 23.3959 37.4449 23.4002 37.4099 23.4088C35.0011 23.8246 32.1813 24.0905 30.7692 23.9833C29.7811 23.9061 28.7407 20.1161 28.7407 18.4784C28.7407 17.9081 28.9243 17.085 30.5244 16.5319C30.9528 16.3947 31.4774 16.2189 32.072 16.0217C32.5529 15.8631 33.095 15.683 33.6852 15.4858C33.6983 15.4815 33.707 15.4772 33.7201 15.4729C37.7597 14.1396 43.8496 12.176 45.1392 12.176C46.1797 12.176 46.4683 12.7076 46.4683 14.6541C46.4683 17.7924 44.7895 18.2168 43.6616 18.5041Z" fill="black"/>
<path d="M30.4282 7.50711C29.6937 7.70861 29.3615 8.79759 29.685 9.9423C30.0085 11.087 30.8697 11.8544 31.6042 11.6529C32.3386 11.4514 32.6709 10.3625 32.3474 9.21775C32.0195 8.07303 31.1626 7.30989 30.4282 7.50711Z" fill="black"/>
<path d="M43.6616 18.5041C42.6036 18.7742 37.5192 19.696 34.9617 19.9961C33.366 20.1847 33.2742 19.7817 33.0294 18.7142C33.0032 18.607 32.9813 18.4955 32.9551 18.3841C32.8545 17.9768 32.4392 17.7281 32.0239 17.8267C31.6086 17.9253 31.355 18.3326 31.4555 18.7399C31.4818 18.8428 31.5036 18.9414 31.5255 19.0443C31.7791 20.159 32.1594 21.8482 35.1453 21.4967C36.9334 21.2866 40.0636 20.7592 42.1708 20.3562C42.2888 21.3595 41.7773 22.1055 41.3139 22.3455C41.3008 22.3498 41.2877 22.3584 41.2746 22.367C40.6582 22.7271 39.1936 23.0958 37.5148 23.3917C37.4799 23.3959 37.4449 23.4002 37.4099 23.4088C35.0011 23.8247 32.1813 24.0905 30.7692 23.9833C29.7811 23.9061 28.7407 20.1161 28.7407 18.4784C28.7407 17.9082 28.9243 17.085 30.5244 16.5319C30.9528 16.3947 31.4774 16.219 32.072 16.0218C32.5529 15.8631 33.095 15.6831 33.6852 15.4858C33.6983 15.4815 33.707 15.4773 33.7201 15.473C37.7597 14.1396 43.8496 12.176 45.1392 12.176C46.1797 12.176 46.4683 12.7077 46.4683 14.6541C46.4683 17.7924 44.7895 18.2169 43.6616 18.5041Z" fill="#FFD900"/>
</svg>
