<svg width="147" height="61" viewBox="0 0 147 61" fill="none" xmlns="http://www.w3.org/2000/svg">
<path d="M94.5392 23.2327C93.7928 23.192 93.1734 23.7816 93.1429 24.5237C92.8332 32.3259 92.1274 37.8153 91.0408 40.8396C90.1014 43.4471 89.2027 43.4471 88.8168 43.4471C88.3903 43.4471 86.8924 43.0253 85.4656 37.5714C84.5008 33.8863 83.9931 29.4998 83.6884 26.8822C83.6072 26.1858 83.5412 25.6064 83.4802 25.1896C83.3787 24.4526 82.6983 23.9392 81.9671 24.046C81.2309 24.1476 80.718 24.8287 80.8196 25.5606C80.8754 25.9622 80.9414 26.5213 81.0176 27.1922C82.1601 37.0326 83.8915 46.141 88.8168 46.141C90.9544 46.141 92.5082 44.7077 93.5694 41.7545C94.7677 38.4253 95.509 32.824 95.8289 24.6356C95.8543 23.8833 95.2806 23.2581 94.5392 23.2327Z" fill="white"/>
<path d="M73.1677 23.868C70.6847 21.6163 67.3386 20.6862 63.2105 21.0928C62.4743 21.164 61.931 21.8247 62.0071 22.5618C62.0782 23.2988 62.7434 23.8426 63.4745 23.7664C66.8105 23.436 69.4661 24.1374 71.36 25.8554C73.7719 28.0411 74.6351 31.5889 74.6351 34.176C74.6351 37.2816 73.5282 39.9298 71.3499 42.0544C69.8215 43.5437 68.0748 44.4281 66.8816 44.8449C66.6684 39.9349 65.7747 27.9597 65.729 27.3295C65.6782 26.5874 65.0334 26.0333 64.2971 26.0791C63.5558 26.1299 62.9973 26.7754 63.048 27.5124C63.3933 32.4885 64.2768 44.8042 64.2413 46.4409C64.221 47.183 64.8049 47.798 65.5462 47.8184C65.5716 47.8184 65.597 47.8184 65.6224 47.8184C67.171 47.8184 70.4816 46.6493 73.2184 43.9808C75.8994 41.3683 77.316 37.978 77.316 34.176C77.3262 31.0196 76.2294 26.6484 73.1677 23.868Z" fill="white"/>
<path d="M108.777 24.3865C109.467 24.1222 109.818 23.3445 109.549 22.6481C109.285 21.9569 108.508 21.6061 107.812 21.8755C102.161 24.0459 98.5099 29.8556 98.9263 36.0058C99.2919 41.3733 102.674 45.4548 107.756 46.6493C107.858 46.6747 107.964 46.6849 108.066 46.6849C108.675 46.6849 109.229 46.2681 109.371 45.648C109.538 44.9262 109.092 44.1994 108.371 44.0316C104.42 43.1015 101.892 40.0314 101.607 35.8228C101.328 31.7464 103.456 26.4247 108.777 24.3865Z" fill="white"/>
<path d="M116.363 34.9892L125.243 23.4563C125.695 22.8667 125.589 22.0229 125 21.5705C124.411 21.1182 123.568 21.2249 123.116 21.8145L115.748 31.3855L115.525 24.1374C115.505 23.3953 114.88 22.8108 114.139 22.8362C113.397 22.8565 112.813 23.4766 112.839 24.2187L113.438 43.7368C113.458 44.4636 114.057 45.038 114.779 45.038C114.794 45.038 114.804 45.038 114.819 45.038C115.56 45.0177 116.144 44.3976 116.119 43.6555L115.951 38.1711L124.401 45.3684C124.654 45.5819 124.964 45.6886 125.269 45.6886C125.65 45.6886 126.025 45.526 126.294 45.2159C126.777 44.6517 126.706 43.8029 126.142 43.32L116.363 34.9892Z" fill="white"/>
<path d="M138.288 21.3064C135.693 20.8591 133.56 21.2911 131.961 22.5873C129.879 24.2697 128.767 27.3092 128.564 31.8838C128.544 32.3006 128.529 32.7326 128.508 33.1748L126.416 33.3425C125.675 33.4035 125.127 34.0491 125.182 34.7912C125.238 35.4926 125.827 36.0263 126.518 36.0263C126.553 36.0263 126.589 36.0263 126.624 36.0212L128.391 35.8789C128.244 39.5639 128.107 43.4472 128.061 45.7091C128.046 46.4512 128.635 47.0662 129.377 47.0814C129.387 47.0814 129.397 47.0814 129.407 47.0814C130.133 47.0814 130.732 46.4969 130.747 45.765C130.793 43.4523 130.935 39.4267 131.088 35.6654L135.927 35.2791C136.668 35.2181 137.216 34.5726 137.155 33.8305C137.1 33.0884 136.455 32.5395 135.708 32.6005L131.194 32.9613C131.21 32.636 131.225 32.3158 131.235 32.0058C131.402 28.3004 132.21 25.8352 133.637 24.6814C134.632 23.8783 135.998 23.6445 137.826 23.9596C138.557 24.0816 139.252 23.5937 139.374 22.8617C139.506 22.1247 139.014 21.4335 138.288 21.3064Z" fill="white"/>
<path d="M145.269 28.829C145.249 28.0869 144.625 27.5024 143.888 27.5227C143.147 27.5431 142.563 28.1632 142.583 28.9053L143.924 47.2136C143.944 47.9405 144.543 48.5148 145.264 48.5148C145.28 48.5148 145.29 48.5148 145.305 48.5148C146.046 48.4945 146.63 47.8744 146.61 47.1323L145.269 28.829Z" fill="white"/>
<path d="M143.929 25.0219C144.975 25.0219 145.818 24.173 145.818 23.1311C145.818 22.084 144.97 21.2402 143.929 21.2402C142.883 21.2402 142.04 22.0891 142.04 23.1311C142.035 24.173 142.883 25.0219 143.929 25.0219Z" fill="white"/>
<path d="M37.8367 30.7915C38.064 33.8526 38.3001 37.0209 38.3001 38.6201C38.3001 38.8988 38.3045 39.2075 38.3132 39.5376C38.3919 43.0618 38.5056 48.3909 32.1927 50.063C28.0045 51.1734 22.9158 51.585 18.9899 51.7222C18.9899 51.7222 18.9899 51.7222 18.9855 51.7222C17.604 51.7693 16.3668 51.7865 15.3657 51.7865C14.0629 51.7865 2.64379 51.6364 2.32465 46.4488C2.05797 42.1529 1.96616 37.7626 3.11157 34.7229C4.06462 32.1934 4.56737 31.8847 7.57516 31.9405C9.48126 31.9791 14.1241 32.2406 18.0106 32.4892C18.0106 32.4892 18.0106 32.4892 18.015 32.4892C20.5725 32.6522 22.8065 32.8065 23.7114 32.8837C24.7956 32.978 24.9705 33.7626 24.9399 35.3789C24.9355 35.4989 24.9355 35.6147 24.9355 35.7219C24.9355 35.8033 24.9355 35.902 24.9399 36.0177C24.9749 39.9235 24.4678 42.4187 23.4273 43.4391C22.0764 44.7638 17.6827 45.2354 14.0148 45.2354C12.5634 45.2354 11.6366 45.1883 11.0245 44.5538C10.1195 43.6106 9.79603 41.2139 10.0321 37.2139C10.0583 36.798 9.73046 36.4379 9.30639 36.4164C8.87796 36.395 8.5151 36.7123 8.49324 37.1281C8.22219 41.7499 8.64188 44.2794 9.90533 45.5913C11.0158 46.7446 12.6115 46.7446 14.0192 46.7446C17.0882 46.7446 22.5354 46.453 24.5202 44.5066C26.3345 42.7274 26.5094 38.8002 26.4832 36.0006C26.4832 35.8891 26.4832 35.7948 26.4832 35.7176C26.4832 35.619 26.4832 35.5161 26.4875 35.4003C26.5094 34.2642 26.5575 31.6061 23.8557 31.3703C23.0076 31.2974 21.1015 31.1645 18.8544 31.0187C18.815 29.2052 18.2817 26.7657 17.674 24.0003C16.957 20.7205 16.1439 17.0034 16.1439 13.9766C16.1439 2.40082 24.2579 1.50049 26.7455 1.50049C27.9302 1.50049 29.8407 1.50049 31.6637 2.64949C31.0298 2.478 30.3609 2.38368 29.6702 2.38368C25.5257 2.38368 22.1551 5.6892 22.1551 9.75358C22.1551 13.3121 24.7432 16.2917 28.1707 16.9777C27.8996 17.4922 27.8122 18.0152 27.8122 18.4697C27.8122 19.31 28.4985 25.2694 31.2615 25.4838C31.502 25.5009 31.7774 25.5095 32.0878 25.5095C33.4868 25.5095 35.5196 25.3251 37.4651 25.025C37.5088 26.3884 37.6662 28.5406 37.8367 30.7915Z" fill="#FFD900"/>
<path d="M32.1883 14.5899C31.5938 14.7871 31.0692 14.9629 30.632 15.1044C30.1992 15.2544 29.8276 15.4259 29.5128 15.6188C26.2864 15.5417 23.6896 12.9478 23.6896 9.76664C23.6896 6.53828 26.3695 3.91016 29.6614 3.91016C34.5578 3.91016 36.2104 8.42042 36.5252 13.1493C36.0268 13.3123 32.6824 14.427 32.1883 14.5899Z" fill="white"/>
<path d="M45.7497 10.6669C44.6698 10.6669 41.6139 11.5415 37.9067 12.7205C37.6793 10.6583 37.2946 8.83188 36.7613 7.27987C34.2606 0 28.9882 0 26.7367 0C20.8654 0 14.5963 3.67423 14.5963 13.9852C14.5963 17.1707 15.4269 20.9693 16.1614 24.3263C16.7122 26.8515 17.2368 29.2524 17.3024 30.9287C13.5951 30.6972 9.44194 30.4657 7.60579 30.4314C4.18268 30.3628 2.91486 30.8773 1.66453 34.2C0.418569 37.5012 0.506005 42.0843 0.781428 46.5432C1.17052 52.8155 12.0432 53.3 15.3613 53.3C16.1789 53.3 17.1538 53.2914 18.2336 53.2614C18.2598 53.8659 18.3123 54.6633 18.3648 55.4908C18.4391 56.6784 18.5309 58.1532 18.509 58.4619C18.4872 58.7835 18.4435 59.5337 19.073 60.1425C19.6719 60.7213 20.6993 61 22.2557 61C22.6622 61 23.0994 60.9828 23.5759 60.9443C24 60.91 24.3191 60.5455 24.2842 60.1297C24.2536 59.7138 23.882 59.4008 23.4535 59.4351C21.0141 59.6238 20.3277 59.2379 20.1485 59.0664C20.0392 58.9592 20.026 58.8392 20.0435 58.5562C20.0654 58.1832 20.0042 57.1157 19.8993 55.4008C19.8512 54.6119 19.7987 53.8059 19.7725 53.2056C22.2032 53.1028 25.0011 52.8927 27.7466 52.4897C27.7685 52.8584 27.7903 53.2614 27.8166 53.6815C27.9215 55.4479 28.0527 57.6516 28.0527 58.1318C28.0527 58.209 28.0483 58.2818 28.0439 58.359C27.9958 59.3494 28.2232 60.3783 30.3129 60.5241C30.9468 60.567 31.4976 60.5841 31.9523 60.5841C32.8529 60.5841 33.3775 60.5284 33.4081 60.5241C33.8322 60.4769 34.1338 60.0997 34.0857 59.6881C34.0376 59.2722 33.6573 58.9764 33.2332 59.0235C33.2245 59.0235 32.1534 59.1393 30.4178 59.0193C29.7489 58.9721 29.5959 58.8349 29.5915 58.8349C29.5653 58.7792 29.5784 58.5648 29.5828 58.4362C29.5872 58.3333 29.5915 58.2347 29.5915 58.1318C29.5915 57.6044 29.4691 55.5637 29.3511 53.5915C29.3205 53.1113 29.2942 52.6483 29.2724 52.241C30.409 52.0395 31.5195 51.8037 32.5818 51.525C40.062 49.5443 39.9177 43.0147 39.8434 39.5077C39.8346 39.1861 39.8303 38.8903 39.8303 38.6245C39.8303 36.9696 39.5942 33.7755 39.3625 30.6844C39.1832 28.3092 39.0171 26.0455 38.9778 24.7721C40.5603 24.4677 41.9375 24.0862 42.6457 23.6746C43.708 23.1172 44.543 21.7367 44.2807 20.0518C44.4337 20.0175 44.5605 19.9875 44.6654 19.9618C45.8458 19.6617 48.6088 18.9585 48.6088 14.6583C48.6219 13.3636 48.6219 10.6669 45.7497 10.6669ZM32.1884 14.5898C31.5938 14.787 31.0692 14.9627 30.632 15.1042C30.1992 15.2543 29.8276 15.4258 29.5128 15.6187C26.2864 15.5415 23.6896 12.9477 23.6896 9.76652C23.6896 6.53816 26.3695 3.91004 29.6615 3.91004C34.5579 3.91004 36.2104 8.4203 36.5252 13.1492C36.0268 13.3121 32.6824 14.4268 32.1884 14.5898ZM37.8367 30.7915C38.064 33.8527 38.3001 37.021 38.3001 38.6202C38.3001 38.8989 38.3045 39.2075 38.3132 39.5377C38.3919 43.0618 38.5056 48.391 32.1927 50.063C28.0046 51.1735 22.9158 51.585 18.9899 51.7222C18.9899 51.7222 18.9899 51.7222 18.9856 51.7222C17.6041 51.7694 16.3669 51.7865 15.3657 51.7865C14.0629 51.7865 2.64381 51.6365 2.32467 46.4488C2.05799 42.1529 1.96618 37.7627 3.11159 34.723C4.06464 32.1935 4.5674 31.8848 7.57519 31.9405C9.48129 31.9791 14.1241 32.2407 18.0107 32.4893C18.0107 32.4893 18.0107 32.4893 18.015 32.4893C20.5725 32.6522 22.8065 32.8066 23.7115 32.8837C24.7957 32.9781 24.9705 33.7626 24.9399 35.379C24.9356 35.499 24.9356 35.6148 24.9356 35.722C24.9356 35.8034 24.9356 35.902 24.9399 36.0178C24.9749 39.9235 24.4678 42.4188 23.4273 43.4391C22.0764 44.7639 17.6828 45.2355 14.0148 45.2355C12.5634 45.2355 11.6366 45.1884 11.0245 44.5538C10.1196 43.6106 9.79606 41.214 10.0321 37.2139C10.0584 36.7981 9.73048 36.4379 9.30642 36.4165C8.87798 36.3951 8.51512 36.7123 8.49326 37.1282C8.22221 41.7499 8.6419 44.2794 9.90535 45.5914C11.0158 46.7447 12.6115 46.7447 14.0192 46.7447C17.0882 46.7447 22.5355 46.4531 24.5202 44.5067C26.3345 42.7274 26.5094 38.8003 26.4832 36.0006C26.4832 35.8892 26.4832 35.7948 26.4832 35.7177C26.4832 35.6191 26.4832 35.5162 26.4876 35.4004C26.5094 34.2643 26.5575 31.6061 23.8557 31.3703C23.0076 31.2974 21.1015 31.1645 18.8544 31.0188C18.8151 29.2052 18.2817 26.7657 17.674 24.0004C16.9571 20.7206 16.1439 17.0035 16.1439 13.9767C16.1439 2.4009 24.2579 1.50056 26.7455 1.50056C27.9302 1.50056 29.8407 1.50056 31.6638 2.64956C31.0298 2.47807 30.361 2.38375 29.6702 2.38375C25.5258 2.38375 22.1551 5.68927 22.1551 9.75365C22.1551 13.3121 24.7432 16.2918 28.1707 16.9778C27.8996 17.4923 27.8122 18.0153 27.8122 18.4698C27.8122 19.3101 28.4986 25.2695 31.2615 25.4838C31.502 25.501 31.7774 25.5096 32.0878 25.5096C33.4868 25.5096 35.5197 25.3252 37.4651 25.0251C37.5088 26.3885 37.6662 28.5407 37.8367 30.7915ZM44.272 18.5041C43.214 18.7742 38.1296 19.696 35.5721 19.9961C33.9764 20.1847 33.8846 19.7817 33.6398 18.7142C33.6136 18.607 33.5917 18.4955 33.5655 18.384C33.4649 17.9767 33.0496 17.7281 32.6343 17.8267C32.219 17.9253 31.9654 18.3326 32.066 18.7399C32.0922 18.8428 32.114 18.9414 32.1359 19.0443C32.3895 20.159 32.7698 21.8482 35.7557 21.4966C37.5438 21.2865 40.674 20.7592 42.7812 20.3562C42.8993 21.3594 42.3878 22.1054 41.9243 22.3455C41.9112 22.3498 41.8981 22.3584 41.885 22.367C41.2686 22.7271 39.804 23.0958 38.1253 23.3916C38.0903 23.3959 38.0553 23.4002 38.0203 23.4088C35.6115 23.8246 32.7917 24.0905 31.3796 23.9833C30.3916 23.9061 29.3511 20.1161 29.3511 18.4784C29.3511 17.9081 29.5347 17.085 31.1348 16.5319C31.5632 16.3947 32.0878 16.2189 32.6824 16.0217C33.1633 15.8631 33.7054 15.683 34.2956 15.4858C34.3087 15.4815 34.3174 15.4772 34.3305 15.4729C38.3701 14.1396 44.46 12.176 45.7497 12.176C46.7901 12.176 47.0787 12.7076 47.0787 14.6541C47.0787 17.7924 45.3999 18.2168 44.272 18.5041Z" fill="black"/>
<path d="M31.0386 7.50711C30.3041 7.70861 29.9719 8.79759 30.2954 9.9423C30.6189 11.087 31.4801 11.8544 32.2146 11.6529C32.9491 11.4514 33.2813 10.3625 32.9578 9.21775C32.6299 8.07303 31.773 7.30989 31.0386 7.50711Z" fill="black"/>
<path d="M44.272 18.5041C43.214 18.7742 38.1296 19.696 35.5721 19.9961C33.9764 20.1847 33.8846 19.7817 33.6398 18.7142C33.6136 18.607 33.5917 18.4955 33.5655 18.3841C33.4649 17.9768 33.0496 17.7281 32.6343 17.8267C32.219 17.9253 31.9654 18.3326 32.066 18.7399C32.0922 18.8428 32.114 18.9414 32.1359 19.0443C32.3895 20.159 32.7698 21.8482 35.7557 21.4967C37.5438 21.2866 40.674 20.7592 42.7812 20.3562C42.8993 21.3595 42.3878 22.1055 41.9243 22.3455C41.9112 22.3498 41.8981 22.3584 41.885 22.367C41.2686 22.7271 39.804 23.0958 38.1253 23.3917C38.0903 23.3959 38.0553 23.4002 38.0203 23.4088C35.6115 23.8247 32.7917 24.0905 31.3796 23.9833C30.3916 23.9061 29.3511 20.1161 29.3511 18.4784C29.3511 17.9082 29.5347 17.085 31.1348 16.5319C31.5632 16.3947 32.0878 16.219 32.6824 16.0218C33.1633 15.8631 33.7054 15.6831 34.2956 15.4858C34.3087 15.4815 34.3174 15.4773 34.3305 15.473C38.3701 14.1396 44.46 12.176 45.7497 12.176C46.7901 12.176 47.0787 12.7077 47.0787 14.6541C47.0787 17.7924 45.3999 18.2169 44.272 18.5041Z" fill="#FFD900"/>
</svg>
