<svg width="38" height="38" viewBox="0 0 38 38" fill="none" xmlns="http://www.w3.org/2000/svg">
<g filter="url(#filter0_d_71_209)">
<path fill-rule="evenodd" clip-rule="evenodd" d="M26.6976 11.8685C27.604 12.6454 28.2058 13.9098 28.4152 15.3379C28.6361 16.8346 28.4267 18.4989 27.6954 19.9651C26.7738 21.8198 25.1591 23.0119 23.2396 23.7126C20.806 24.6038 17.8926 24.7294 15.242 24.4514C13.6429 24.3077 12.1409 23.6225 10.9842 22.5091C10.4681 22.0014 10.059 21.3954 9.78096 20.7269C9.50296 20.0584 9.36173 19.3409 9.36561 18.6169C9.36264 17.6581 9.59727 16.7135 10.0485 15.8675C10.4998 15.0215 11.1536 14.3005 11.9515 13.7688C12.1527 13.644 12.317 13.4679 12.4276 13.2585C12.4869 13.1354 12.5128 12.9988 12.5028 12.8624C12.4928 12.7261 12.4471 12.5948 12.3704 12.4816C12.2358 12.2975 12.0544 12.1528 11.8449 12.0627C11.0506 11.712 10.3177 11.2363 9.67409 10.6536C9.25516 10.2385 9 9.81953 9 9.42726C9 9.09212 9.09902 8.92455 9.26659 8.86362C9.52175 8.76841 9.94068 8.80268 10.4472 8.88647C10.8256 8.9491 11.214 8.87628 11.544 8.68081C11.88 8.48153 12.1481 8.18555 12.3133 7.83154C12.6542 7.11126 13.1921 6.50223 13.8647 6.07493C14.5374 5.64763 15.3172 5.41952 16.1141 5.41701C16.665 5.4155 17.2107 5.52295 17.7199 5.73318C18.2291 5.94342 18.6917 6.25228 19.0811 6.64199C19.4704 7.0317 19.7789 7.49457 19.9886 8.00396C20.1984 8.51334 20.3054 9.05918 20.3033 9.61006C20.3051 10.6807 19.8962 11.7111 19.1608 12.4892C18.9841 12.6637 18.8567 12.8818 18.7914 13.1214C18.7538 13.2657 18.7562 13.4174 18.7985 13.5604C18.8408 13.7033 18.9213 13.832 19.0313 13.9326C19.1898 14.0743 19.3829 14.1716 19.5912 14.2144C20.0672 14.3287 20.5737 14.4125 21.1145 14.4506C21.6515 14.4886 22.2228 14.4886 22.8283 14.4125C25.3228 14.123 26.1416 12.7787 26.5986 12.0246L26.6976 11.8723V11.8685ZM14.8649 7.90771C14.6569 7.90771 14.4573 7.99036 14.3102 8.13749C14.1631 8.28462 14.0804 8.48417 14.0804 8.69224C14.0804 8.90031 14.1631 9.09986 14.3102 9.24699C14.4573 9.39411 14.6569 9.47677 14.8649 9.47677C15.073 9.47677 15.2726 9.39411 15.4197 9.24699C15.5668 9.09986 15.6495 8.90031 15.6495 8.69224C15.6495 8.48417 15.5668 8.28462 15.4197 8.13749C15.2726 7.99036 15.073 7.90771 14.8649 7.90771Z" fill="#FFD900"/>
<path d="M26.1976 10.7813L27.023 11.4888C28.0454 12.3652 28.6882 13.7537 28.9099 15.2649L26.1976 10.7813ZM26.1976 10.7813V11.724M26.1976 10.7813V11.724M26.1976 11.724L26.1794 11.7521L26.1751 11.7587L26.171 11.7654C25.9447 12.1389 25.6632 12.5973 25.1621 13.0049C24.6673 13.4072 23.93 13.7813 22.7707 13.9158L22.7707 13.9158L22.7659 13.9164C22.1994 13.9876 21.6617 13.9881 21.1499 13.9518L21.1497 13.9518C20.6386 13.9158 20.1594 13.8366 19.7079 13.7282L19.6999 13.7263L19.6919 13.7247C19.5712 13.6998 19.4591 13.6437 19.3669 13.5619C19.3249 13.523 19.2942 13.4735 19.278 13.4186C19.2617 13.3637 19.2606 13.3054 19.2746 13.2499C19.317 13.0965 19.3989 12.9569 19.5122 12.845L19.5183 12.8389L19.5242 12.8327C20.3472 11.9619 20.8049 10.8088 20.8033 9.61072M26.1976 11.724L28.1431 20.1879C27.1503 22.1855 25.4174 23.4498 23.4111 24.1823C20.8815 25.1085 17.8859 25.2311 15.1935 24.9491C13.4824 24.7945 11.8752 24.0609 10.6374 22.8694L10.6335 22.8656L10.6335 22.8656C10.0698 22.311 9.62293 21.649 9.31928 20.9188C9.01591 20.1893 8.86165 19.4065 8.8656 18.6164C8.86274 17.5757 9.11756 16.5505 9.60735 15.6322C10.0975 14.7133 10.8076 13.9302 11.6743 13.3527L11.681 13.3482L11.6879 13.344C11.8107 13.2678 11.9115 13.1611 11.9805 13.0343C11.9994 12.9919 12.0076 12.9455 12.0042 12.8991C12.0008 12.8526 11.9858 12.8078 11.9608 12.7686C11.8796 12.6605 11.7715 12.5754 11.6472 12.5219L11.6429 12.5201L11.6429 12.5201C10.7998 12.1478 10.0218 11.6428 9.33852 11.0242L9.33016 11.0167L9.32215 11.0087C8.87819 10.5688 8.5 10.0265 8.5 9.42726C8.5 9.21777 8.52978 9.00594 8.62324 8.81901C8.72453 8.61644 8.88794 8.46983 9.09375 8.39444C9.31227 8.31337 9.55754 8.30028 9.78048 8.30824C10.0119 8.3165 10.2677 8.34997 10.5288 8.39317L10.5288 8.39318C10.7912 8.4366 11.0604 8.38612 11.2892 8.25061M26.1976 11.724L26.2784 11.5998L26.6918 11.8685L26.6956 11.8709L26.6976 11.8685H27.1976V11.8723V12.0205L27.1169 12.1448L27.0637 12.2265L26.1976 11.724ZM20.8033 9.61072C20.8033 9.61111 20.8033 9.6115 20.8033 9.61189L20.3033 9.61006L20.8033 9.60924C20.8033 9.60973 20.8033 9.61023 20.8033 9.61072ZM20.8033 9.61072C20.8054 8.99431 20.6857 8.38355 20.451 7.81356C20.2161 7.24322 19.8707 6.72495 19.4348 6.2886C18.9988 5.85225 18.4809 5.50642 17.9107 5.27103L17.7211 5.7304L17.9107 5.27103C17.3406 5.03563 16.7295 4.91532 16.1127 4.91701L16.1125 4.91701C15.2212 4.91982 14.3489 5.17496 13.5966 5.65289L13.8647 6.07493M13.8647 6.07493L13.5966 5.65289C12.8443 6.13082 12.2427 6.81202 11.8614 7.61764L11.8614 7.61764L11.8602 7.62012C11.7376 7.88291 11.5386 8.10263 11.2892 8.25061M13.8647 6.07493C13.1921 6.50223 12.6542 7.11126 12.3133 7.83154M13.8647 6.07493C14.5374 5.64763 15.3172 5.41952 16.1141 5.41701L12.3133 7.83154M11.2892 8.25061C11.2891 8.25066 11.289 8.25071 11.289 8.25076L11.544 8.68081M11.2892 8.25061L11.544 8.68081M11.544 8.68081C11.88 8.48153 12.1481 8.18555 12.3133 7.83154M11.544 8.68081C11.214 8.87628 10.8256 8.9491 10.4472 8.88647L12.3133 7.83154M26.6944 11.8723L26.5763 12.0101L26.5757 12.0107L26.3723 12.2481C26.3914 12.2645 26.4105 12.2812 26.4294 12.2982C25.9369 13.0669 25.0431 14.1555 22.8283 14.4125L26.6944 11.8723ZM28.1432 20.1876C28.9233 18.6231 29.1444 16.8549 28.9099 15.2654L28.1432 20.1876ZM14.6637 8.49104C14.7171 8.43768 14.7895 8.40771 14.8649 8.40771C14.9404 8.40771 15.0128 8.43768 15.0661 8.49104C15.1195 8.5444 15.1495 8.61677 15.1495 8.69224C15.1495 8.7677 15.1195 8.84007 15.0661 8.89343C15.0128 8.94679 14.9404 8.97677 14.8649 8.97677C14.7895 8.97677 14.7171 8.94679 14.6637 8.89343C14.6104 8.84007 14.5804 8.7677 14.5804 8.69224C14.5804 8.61678 14.6104 8.5444 14.6637 8.49104Z" stroke="white"/>
</g>
<defs>
<filter id="filter0_d_71_209" x="0" y="0.416992" width="37.4987" height="37.1658" filterUnits="userSpaceOnUse" color-interpolation-filters="sRGB">
<feFlood flood-opacity="0" result="BackgroundImageFix"/>
<feColorMatrix in="SourceAlpha" type="matrix" values="0 0 0 0 0 0 0 0 0 0 0 0 0 0 0 0 0 0 127 0" result="hardAlpha"/>
<feOffset dy="4"/>
<feGaussianBlur stdDeviation="4"/>
<feComposite in2="hardAlpha" operator="out"/>
<feColorMatrix type="matrix" values="0 0 0 0 0 0 0 0 0 0 0 0 0 0 0 0 0 0 0.25 0"/>
<feBlend mode="normal" in2="BackgroundImageFix" result="effect1_dropShadow_71_209"/>
<feBlend mode="normal" in="SourceGraphic" in2="effect1_dropShadow_71_209" result="shape"/>
</filter>
</defs>
</svg>
